<?xml version="1.0" standalone="no"?>
<!DOCTYPE svg PUBLIC "-//W3C//DTD SVG 20010904//EN"
 "http://www.w3.org/TR/2001/REC-SVG-20010904/DTD/svg10.dtd">
<svg version="1.0" xmlns="http://www.w3.org/2000/svg"
 width="300.000000pt" height="300.000000pt" viewBox="0 0 300.000000 300.000000"
 preserveAspectRatio="xMidYMid meet">
<metadata>
Created by potrace 1.11, written by Peter Selinger 2001-2013
</metadata>
<g transform="translate(0.000000,300.000000) scale(0.100000,-0.100000)"
fill="#000000" stroke="none">
<path d="M1275 2775 c-31 -30 -32 -59 -3 -79 20 -14 21 -18 10 -68 -7 -29 -14
-80 -17 -113 -3 -33 -8 -68 -11 -77 -3 -10 -2 -18 3 -18 4 0 8 -26 7 -57 0
-53 8 -129 20 -179 4 -16 -2 -24 -29 -37 -30 -14 -35 -22 -35 -50 0 -27 -6
-35 -37 -52 -98 -51 -201 -200 -237 -340 -57 -224 -26 -536 76 -754 102 -218
211 -304 384 -303 l61 0 2 -61 c1 -34 4 -89 7 -122 2 -33 5 -97 6 -143 3 -70
1 -82 -13 -82 -9 0 -21 -6 -26 -12 -7 -11 -10 -137 -4 -210 1 -16 16 -18 170
-18 94 0 172 3 174 7 3 5 1 36 -4 71 -5 35 -11 82 -13 105 -2 23 -5 45 -5 50
-1 4 -8 7 -16 7 -19 0 -17 -8 -20 132 -1 64 -5 124 -8 132 -4 9 -1 16 6 16 8
0 8 3 2 8 -6 4 -12 50 -13 104 l-3 96 61 60 c33 33 60 62 60 65 0 3 10 23 23
44 35 60 49 101 62 188 7 44 10 171 5 178 -1 1 -4 38 -5 82 -11 275 -21 354
-60 471 -54 161 -132 250 -259 294 -30 10 -57 16 -60 13 -3 -3 -11 6 -17 21
-13 28 -16 29 -65 26 -30 -1 -33 2 -48 47 -40 124 -57 206 -44 214 6 4 15 6
19 3 10 -6 49 45 49 62 0 17 -57 54 -82 54 -15 0 -17 7 -14 48 2 26 4 55 5 65
1 10 7 17 14 14 20 -7 47 33 42 62 -10 58 -78 79 -120 36z m126 -264 c24 -19
24 -19 4 -40 -30 -34 -59 -24 -62 22 -3 31 0 37 16 37 10 0 29 -9 42 -19z"/>
<path d="M1215 2529 c-12 -6 -27 -20 -34 -32 l-14 -22 22 20 c13 11 35 25 49
32 15 6 20 11 12 12 -8 0 -24 -5 -35 -10z"/>
<path d="M1173 2457 c4 -13 67 -40 67 -29 0 4 -16 15 -36 24 -21 10 -34 12
-31 5z"/>
</g>
</svg>
